<svg viewBox="0 0 24 24" xmlns="http://www.w3.org/2000/svg" fill="#ea4c89">
	<path d="M12 24a12 12 0 110-24 12 12 0 010 24zm10.1-10.4a15 15 0 00-6.4-.4c1.4 3.7 2 6.7 2 7.3 2.3-1.5 4-4 4.4-6.9zM16 21.4c-.1-.8-.7-4-2.2-7.7a14 14 0 00-8 6.4A10.2 10.2 0 0016 21.5zM4.4 19a16.3 16.3 0 018.7-7l-.8-1.7c-5.1 1.6-10 1.5-10.5 1.5v.3c0 2.6 1 5 2.6 6.9zM2 9.9c.4 0 4.6 0 9.4-1.2-1.7-3-3.5-5.6-3.8-6-2.8 1.4-5 4-5.6 7.2zm7.6-7.8c.3.3 2.1 2.9 3.8 6 3.7-1.4 5.2-3.5 5.4-3.8A10.2 10.2 0 009.6 2zm10.3 3.4c-.2.3-1.9 2.5-5.7 4l.7 1.6.2.5a24 24 0 017.2.3c0-2.4-1-4.6-2.4-6.4z" />
</svg>
