<svg xmlns="http://www.w3.org/2000/svg" viewBox="0 0 479.4 479.4" fill="#0ba5f8">
	<path d="M239 0a240 240 0 100 480 240 240 0 000-480zM78 84l4-4 5-4 4-4 5-4 4-3a187 187 0 019-7l5-4a214 214 0 0146-23l6-2a249 249 0 0111-4l5-1 2-1c-24 23-42 52-51 83-19-5-38-12-55-21v-1zM67 97c19 11 40 19 61 24-11 36-16 74-16 111H16c1-49 19-97 51-135zm0 286c-32-38-50-86-51-135h96c0 37 5 75 16 111-21 5-42 13-61 24zm115 73l-5-1-6-2-5-2a191 191 0 01-27-11l-5-2a223 223 0 01-25-16l-4-3-5-4-4-3-5-4-4-4-5-4-4-4v-1c17-9 36-16 55-21 9 31 27 60 51 83l-2-1zm49 7c-34-4-64-40-83-93 28-6 55-9 83-10v103zm0-119c-29 1-59 4-88 11-10-35-15-71-15-107h103v96zm0-112H128c0-36 5-72 15-107 29 7 59 10 88 11v96zm0-112c-28-1-55-4-83-10 19-53 49-88 83-93v103zm181-23c31 38 50 86 51 135h-96c0-37-5-75-16-111 21-5 42-13 61-24zM297 24l5 1 6 2 5 2a191 191 0 0147 22 210 210 0 0119 14l4 3 5 4 4 4 5 4 3 4 1 1c-17 9-36 16-55 21-10-31-27-60-51-83l2 1zm-50-7c35 5 65 40 84 93-28 6-56 9-84 10V17zm0 119c30-1 60-4 89-11 10 35 15 71 15 107H247v-96zm0 112h104c0 36-5 72-15 107-29-7-59-10-89-11v-96zm0 215V360c28 1 56 4 84 10-19 53-49 89-84 93zm153-67l-3 4-5 4-4 4-5 4-4 3a187 187 0 01-9 7l-5 4a187 187 0 01-10 6l-5 3a238 238 0 01-26 12l-5 2a198 198 0 01-22 7l-2 1c24-23 41-52 51-83 19 5 38 12 55 21l-1 1zm12-13c-19-11-40-19-61-24 11-36 16-74 16-111h96c-1 49-20 97-51 135z" />
</svg>
