<svg width="458" height="58" fill="none" xmlns="http://www.w3.org/2000/svg">
	<path d="M79.4 46c10.6 0 17-6.6 17-17.5S90 11.1 79.6 11.1H67V46h12.4zm-5-6.3V17.4h4.7c6.6 0 10 3.4 10 11.1 0 7.8-3.4 11.2-10 11.2h-4.7zm39.4 6.8c6.4 0 10.8-3.1 11.8-8l-6.7-.4c-.7 2-2.6 3-5 3-3.7 0-6-2.4-6-6.3h17.9v-2c0-9-5.4-13.3-12.3-13.3-7.7 0-12.7 5.4-12.7 13.5 0 8.3 4.9 13.5 13 13.5zm-5.9-16.2c.2-3 2.5-5.4 5.7-5.4 3.1 0 5.3 2.2 5.3 5.4h-11zm46.3-10.5h-7.7L141 38.6h-.3l-5.5-18.8h-7.6l9.1 26.2h8.2l9.2-26.2zm14.7 26.7c6.5 0 10.9-3.1 11.9-8l-6.7-.4c-.8 2-2.6 3-5 3-3.7 0-6-2.4-6-6.3H181v-2c0-9-5.3-13.3-12.3-13.3-7.7 0-12.7 5.4-12.7 13.5 0 8.3 5 13.5 13 13.5zm-5.8-16.2c.2-3 2.4-5.4 5.7-5.4 3.1 0 5.3 2.2 5.3 5.4h-11zM193 11h-7.2V46h7.2V11zm17.7 35.4c8 0 12.9-5.4 12.9-13.5s-5-13.5-13-13.5c-7.9 0-12.8 5.4-12.8 13.5 0 8 5 13.5 12.9 13.5zm0-5.6c-3.6 0-5.5-3.4-5.5-8 0-4.5 1.9-7.9 5.5-7.9s5.5 3.4 5.5 8c0 4.5-1.9 7.9-5.5 7.9zm17.6 15h7.3v-14h.2c1 2 3.2 4.5 7.4 4.5 6 0 10.6-4.7 10.6-13.5 0-9-4.8-13.4-10.6-13.4a7.7 7.7 0 00-7.4 4.7h-.3v-4.4h-7.2v36zm7.1-23c0-4.7 2-7.6 5.5-7.6 3.6 0 5.5 3 5.5 7.6s-2 7.7-5.5 7.7-5.5-3-5.5-7.7zM258.6 46h7.2V19.8h-7.2V46zm3.6-29.6c2.2 0 4-1.6 4-3.6s-1.8-3.7-4-3.7c-2.1 0-3.9 1.7-3.9 3.7s1.8 3.6 4 3.6zM279 31c0-3.4 2-5.4 5-5.4 2.9 0 4.6 2 4.6 5.1V46h7.3V29.3c0-6-3.6-9.8-9-9.8-4 0-6.7 1.9-8 5h-.2v-4.7h-7V46h7.3V30.9zm34.4 25.5c7.5 0 12.8-3.4 12.8-10.1V19.8h-7.2v4.4h-.3a7.8 7.8 0 00-7.5-4.7c-5.7 0-10.6 4.4-10.6 13.4 0 8.7 4.8 12.7 10.7 12.7 4.1 0 6.5-2 7.4-4.2h.3v4.8c0 3.5-2.3 5-5.4 5-3.2 0-4.9-1.5-5.4-3l-6.8.9c1 4 5 7.3 12 7.3zm.2-16.2c-3.6 0-5.6-2.9-5.6-7.4 0-4.4 2-7.5 5.6-7.5 3.5 0 5.5 3 5.5 7.5 0 4.6-2 7.4-5.5 7.4zM343 11V46h7.2V23.2h.3l9 22.6h4.9l9-22.5h.3V46h7.2V11h-9.1l-9.6 23.5h-.5l-9.6-23.4h-9zM387 46h7.3V19.8h-7.3V46zm3.7-29.6c2.1 0 3.9-1.6 3.9-3.6s-1.8-3.7-4-3.7c-2 0-3.9 1.7-3.9 3.7s1.8 3.6 4 3.6zM407.3 31c0-3.4 2-5.4 5-5.4 2.8 0 4.6 2 4.6 5.1V46h7.2V29.3c0-6-3.6-9.8-9-9.8-3.9 0-6.7 1.9-7.9 5h-.3v-4.7h-7V46h7.4V30.9zm32.2 15.5c4.2 0 6.4-2.4 7.4-4.6h.3V46h7.2V11h-7.2v13.2h-.3c-1-2.1-3-4.7-7.4-4.7-5.8 0-10.6 4.4-10.6 13.4 0 8.8 4.6 13.5 10.6 13.5zm2.3-5.8c-3.6 0-5.5-3.1-5.5-7.7 0-4.5 1.9-7.6 5.5-7.6 3.5 0 5.5 3 5.5 7.6 0 4.7-2 7.7-5.5 7.7z" fill="#0BA5F8" />
	<path d="M21.5 6.4a5 5 0 015 0l15.8 9.2a5 5 0 012.5 4.3V38a5 5 0 01-2.5 4.3l-15.8 9.2a5 5 0 01-5 0L5.7 42.4a5 5 0 01-2.5-4.3V20a5 5 0 012.5-4.3l15.8-9.2z" fill="url(#paint0_radial)" />
	<g clip-path="url(#clip0)" fill="#fff">
		<path d="M24 21.9a.6.6 0 01-.6-.6v-1.7a.6.6 0 011.2 0v1.7c0 .3-.3.6-.6.6zM29.5 24.1L29 24a.6.6 0 010-1l1.2-1a.6.6 0 01.9.8L29.9 24l-.4.1zM33.4 29.6h-1.7a.6.6 0 010-1.2h1.7a.6.6 0 010 1.2zM30.6 36.3l-.4-.2-1.2-1.2a.6.6 0 111-.9l1 1.2a.6.6 0 01-.4 1zM17.4 36.3l-.5-.2a.6.6 0 010-1l1.2-1a.6.6 0 01.9.8l-1.2 1.2-.4.2zM16.3 29.6h-1.7a.6.6 0 010-1.2h1.7a.6.6 0 010 1.2zM18.5 24.1l-.4-.1-1.2-1.2a.6.6 0 111-.9l1 1.2a.6.6 0 01-.4 1zM26.5 36.5v1c0 .8-.7 1.5-1.5 1.5h-2c-.7 0-1.5-.5-1.5-1.7v-.8h5zM27.7 24.5a5.9 5.9 0 00-9.4 3.3c-.5 2.2.4 4.5 2.2 5.9.5.3.8.9 1 1.5h5c.2-.6.5-1.2 1.1-1.6a5.8 5.8 0 000-9.1zm-.6 5a.6.6 0 01-.6-.7c0-1.3-1-2.3-2.3-2.3a.6.6 0 01-.6-.6c0-.4.3-.6.6-.6 2 0 3.6 1.5 3.6 3.5 0 .3-.3.6-.7.6zM21.4 35.3h.1zM26.5 35.3z" />
	</g>
	<defs>
		<radialGradient id="paint0_radial" cx="0" cy="0" r="1" gradientUnits="userSpaceOnUse" gradientTransform="matrix(0 24 -24 0 24 29)">
			<stop stop-color="#40B9FB" />
			<stop offset="1" stop-color="#0097E8" />
		</radialGradient>
		<clipPath id="clip0">
			<path fill="#fff" transform="translate(14 19)" d="M0 0h20v20H0z" />
		</clipPath>
	</defs>
</svg>
