<svg width="48" height="48" fill="none" xmlns="http://www.w3.org/2000/svg">
	<path d="M21.5 1.4a5 5 0 015 0l15.8 9.2a5 5 0 012.5 4.3V33a5 5 0 01-2.5 4.3l-15.8 9.2a5 5 0 01-5 0L5.7 37.4a5 5 0 01-2.5-4.3V15a5 5 0 012.5-4.3l15.8-9.2z" fill="url(#paint0_radial)" />
	<g clip-path="url(#clip0)" fill="#fff">
		<path d="M24 16.9a.6.6 0 01-.6-.6v-1.7a.6.6 0 011.2 0v1.7c0 .3-.3.6-.6.6zM29.5 19.1L29 19a.6.6 0 010-1l1.2-1a.6.6 0 01.9.8L29.9 19l-.4.1zM33.4 24.6h-1.7a.6.6 0 010-1.2h1.7a.6.6 0 010 1.2zM30.6 31.3l-.4-.2-1.2-1.2a.6.6 0 111-.9l1 1.2a.6.6 0 01-.4 1zM17.4 31.3l-.5-.2a.6.6 0 010-1l1.2-1a.6.6 0 01.9.8l-1.2 1.2-.4.2zM16.3 24.6h-1.7a.6.6 0 010-1.2h1.7a.6.6 0 010 1.2zM18.5 19.1l-.4-.1-1.2-1.2a.6.6 0 111-.9l1 1.2a.6.6 0 01-.4 1zM26.5 31.5v1c0 .8-.7 1.5-1.5 1.5h-2c-.7 0-1.5-.5-1.5-1.7v-.8h5zM27.7 19.5a5.9 5.9 0 00-9.4 3.3c-.5 2.2.4 4.5 2.2 5.9.5.3.8.9 1 1.6h5c.2-.7.5-1.3 1.1-1.7a5.8 5.8 0 000-9.1zm-.6 5a.6.6 0 01-.6-.7c0-1.3-1-2.3-2.3-2.3a.6.6 0 01-.6-.6c0-.4.3-.6.6-.6 2 0 3.6 1.5 3.6 3.5 0 .3-.3.6-.7.6zM21.4 30.3h.1zM26.5 30.3z" />
	</g>
	<defs>
		<radialGradient id="paint0_radial" cx="0" cy="0" r="1" gradientUnits="userSpaceOnUse" gradientTransform="matrix(0 24 -24 0 24 24)">
			<stop stop-color="#40B9FB" />
			<stop offset="1" stop-color="#0097E8" />
		</radialGradient>
		<clipPath id="clip0">
			<path fill="#fff" transform="translate(14 14)" d="M0 0h20v20H0z" />
		</clipPath>
	</defs>
</svg>
