<svg xmlns="http://www.w3.org/2000/svg" width="30.762" height="30" viewBox="0 0 30.762 30">
	<path id="github" d="M15.381.3A15.382,15.382,0,0,0,10.517,30.27c.769.145,1.051-.331,1.051-.74,0-.365-.013-1.333-.019-2.615-4.278.928-5.181-2.064-5.181-2.064A4.077,4.077,0,0,0,4.657,22.6c-1.393-.954.108-.934.108-.934A3.225,3.225,0,0,1,7.12,23.253a3.278,3.278,0,0,0,4.48,1.279,3.279,3.279,0,0,1,.974-2.057c-3.416-.385-7.006-1.707-7.006-7.6a5.934,5.934,0,0,1,1.583-4.127,5.469,5.469,0,0,1,.135-4.071s1.288-.413,4.23,1.577a14.5,14.5,0,0,1,7.69,0c2.922-1.989,4.211-1.577,4.211-1.577a5.62,5.62,0,0,1,.154,4.071,5.958,5.958,0,0,1,1.577,4.127c0,5.909-3.6,7.21-7.018,7.588a3.682,3.682,0,0,1,1.038,2.845c0,2.058-.019,3.712-.019,4.212,0,.4.269.884,1.057.731A15.362,15.362,0,0,0,15.381.3" transform="translate(0 -0.297)" fill="#181717" />
</svg>
