<svg xmlns="http://www.w3.org/2000/svg" width="30" height="30" viewBox="0 0 30 30">
	<path id="linkedin" d="M25.559,25.565H21.116V18.6c0-1.66-.034-3.8-2.315-3.8-2.316,0-2.67,1.806-2.67,3.674v7.084H11.689V11.25h4.267V13.2h.057a4.682,4.682,0,0,1,4.213-2.313c4.5,0,5.334,2.963,5.334,6.819v7.858ZM6.671,9.291A2.58,2.58,0,1,1,9.251,6.71,2.577,2.577,0,0,1,6.671,9.291ZM8.9,25.565H4.444V11.25H8.9ZM27.781,0H2.214A2.187,2.187,0,0,0,0,2.161V27.839A2.186,2.186,0,0,0,2.214,30H27.778A2.195,2.195,0,0,0,30,27.839V2.161A2.2,2.2,0,0,0,27.778,0Z" fill="#0077b5" />
</svg>
