<svg xmlns="http://www.w3.org/2000/svg" width="36.911" height="30" viewBox="0 0 36.911 30">
	<path id="twitter" d="M36.839,5.819A15.38,15.38,0,0,1,32.494,7.01a7.625,7.625,0,0,0,3.326-4.188,15.63,15.63,0,0,1-4.809,1.821A7.564,7.564,0,0,0,17.923,9.808a7.743,7.743,0,0,0,.2,1.729,21.43,21.43,0,0,1-15.6-7.883A7.416,7.416,0,0,0,1.5,7.46a7.568,7.568,0,0,0,3.365,6.3,7.542,7.542,0,0,1-3.426-.947v.094A7.571,7.571,0,0,0,7.5,20.329a7.636,7.636,0,0,1-3.4.131,7.592,7.592,0,0,0,7.081,5.255A15.176,15.176,0,0,1,1.8,28.952a16.061,16.061,0,0,1-1.8-.1,21.524,21.524,0,0,0,11.622,3.4c13.924,0,21.529-11.528,21.529-21.509,0-.321,0-.646-.023-.969a15.281,15.281,0,0,0,3.783-3.919l-.072-.031Z" transform="translate(0 -2.246)" fill="#1da1f2" />
</svg>
